<svg width="21" height="24" viewBox="0 0 21 24" fill="none" xmlns="http://www.w3.org/2000/svg">
<path fill-rule="evenodd" clip-rule="evenodd" d="M16.252 6.16659C16.2891 6.0839 16.3065 5.99379 16.3028 5.9033H16.3333C16.2029 2.79015 13.6324 0.333252 10.5058 0.333252C7.37916 0.333252 4.80868 2.79015 4.6782 5.9033C4.66282 5.99039 4.66282 6.07949 4.6782 6.16659H4.587C3.09192 6.16659 1.49374 7.15355 1.02975 9.80667L0.122389 17.0338C-0.619994 22.34 2.11239 23.6666 5.67995 23.6666H15.3516C18.9088 23.6666 21.5587 21.7457 20.8988 17.0338L20.0018 9.80667C19.4553 7.22784 17.9086 6.16659 16.4342 6.16659H16.252ZM14.5754 6.16659C14.5429 6.08252 14.5257 5.99337 14.5246 5.9033C14.5246 3.66621 12.7048 1.8527 10.46 1.8527C8.21525 1.8527 6.39548 3.66621 6.39548 5.9033C6.41086 5.99039 6.41086 6.07949 6.39548 6.16659H14.5754ZM7.11316 12.1733C6.54371 12.1733 6.08208 11.6981 6.08208 11.112C6.08208 10.5259 6.54371 10.0508 7.11316 10.0508C7.68262 10.0508 8.14425 10.5259 8.14425 11.112C8.14425 11.6981 7.68262 12.1733 7.11316 12.1733ZM12.8357 11.112C12.8357 11.6981 13.2973 12.1733 13.8668 12.1733C14.4362 12.1733 14.8979 11.6981 14.8979 11.112C14.8979 10.5259 14.4362 10.0508 13.8668 10.0508C13.2973 10.0508 12.8357 10.5259 12.8357 11.112Z" fill="#212121"/>
</svg>
